<svg width="282" height="48" viewBox="0 0 282 48" fill="none" xmlns="http://www.w3.org/2000/svg">
<path d="M20.0876 1.064C22.9916 1.064 25.3016 1.504 27.0176 2.384C29.0856 3.44 30.6696 4.892 31.7696 6.74C32.9136 8.588 33.4856 10.656 33.4856 12.944C33.4856 15.1 32.9136 17.102 31.7696 18.95C30.6256 20.754 29.0636 22.184 27.0836 23.24C29.4596 24.076 31.4616 25.528 33.0896 27.596C34.7176 29.664 35.5316 31.996 35.5316 34.592C35.5316 36.88 34.9376 38.992 33.7496 40.928C32.6056 42.82 31.0656 44.316 29.1296 45.416C28.1616 45.944 27.0836 46.34 25.8956 46.604C24.7076 46.868 23.1236 47 21.1436 47H0.815594V1.064H20.0876Z" fill="#5EA51D"/>
<path d="M49.8691 1.064H82.2091V3.506H52.3111V22.118H78.3151V24.56H52.3111V44.558H82.2091V47H49.8691V1.064ZM130.735 37.562C129.547 40.598 127.391 43.106 124.267 45.086C121.143 47.022 117.799 47.99 114.235 47.99C110.803 47.99 107.635 47.132 104.731 45.416C101.827 43.7 99.5165 41.346 97.8005 38.354C96.1285 35.318 95.2925 31.996 95.2925 28.388V19.148C95.2925 15.628 96.1285 12.416 97.8005 9.512C99.5165 6.608 101.805 4.32 104.665 2.648C107.569 0.931998 110.759 0.0739983 114.235 0.0739983C117.095 0.0739983 119.713 0.557999 122.089 1.526C124.465 2.45 126.489 3.814 128.161 5.618C129.525 7.114 130.625 8.786 131.461 10.634C132.341 12.482 132.781 14.352 132.781 16.244H130.405C130.361 14.616 129.943 13.01 129.151 11.426C128.403 9.842 127.435 8.412 126.247 7.136C123.299 4.056 119.295 2.516 114.235 2.516C111.199 2.516 108.405 3.264 105.853 4.76C103.345 6.212 101.365 8.214 99.9125 10.766C98.4605 13.274 97.7345 16.068 97.7345 19.148V28.388C97.7345 31.6 98.4605 34.526 99.9125 37.166C101.409 39.762 103.411 41.808 105.919 43.304C108.471 44.8 111.243 45.548 114.235 45.548C117.271 45.548 120.043 44.822 122.551 43.37C125.103 41.874 127.105 39.872 128.557 37.364C130.009 34.812 130.735 32.04 130.735 29.048V26.738H114.235V24.296H133.177V47H130.735V37.562ZM173.386 2.582C176.026 3.814 178.094 5.64 179.59 8.06C181.13 10.48 181.9 13.164 181.9 16.112C181.9 19.544 180.844 22.624 178.732 25.352C176.664 28.036 174.002 29.818 170.746 30.698L182.428 47H179.524L168.238 31.16L166.126 31.226H149.56V47H147.118V1.064H164.608C166.544 1.064 168.194 1.196 169.558 1.46C170.966 1.68 172.242 2.054 173.386 2.582ZM166.786 28.784C169.074 28.784 171.186 28.212 173.122 27.068C175.058 25.924 176.598 24.384 177.742 22.448C178.886 20.512 179.458 18.4 179.458 16.112C179.458 13.56 178.776 11.25 177.412 9.182C176.092 7.114 174.244 5.574 171.868 4.562C170.152 3.858 167.732 3.506 164.608 3.506H149.56V28.784H166.786ZM196.039 1.064L212.341 25.616L228.511 1.064H231.415L213.529 28.19V47H211.087V28.19L193.135 1.064H196.039ZM248.327 47H245.885V1.064H264.365C267.445 1.064 270.283 1.724 272.879 3.044C275.519 4.364 277.609 6.234 279.149 8.654C280.689 11.074 281.459 13.868 281.459 17.036C281.459 20.072 280.667 22.866 279.083 25.418C277.543 27.97 275.431 29.928 272.747 31.292C270.415 32.48 267.621 33.074 264.365 33.074H248.327V47ZM248.327 30.632H264.365C267.181 30.632 269.491 30.192 271.295 29.312C273.627 28.212 275.497 26.562 276.905 24.362C278.313 22.162 279.017 19.72 279.017 17.036C279.017 14.396 278.313 11.976 276.905 9.776C275.497 7.576 273.605 5.926 271.229 4.826C269.425 3.946 267.137 3.506 264.365 3.506H248.327V30.632Z" fill="white"/>
</svg>
