<svg width="363" height="728" viewBox="0 0 363 728" fill="none" xmlns="http://www.w3.org/2000/svg">
<g id="Group 22">
<path id="Vector" d="M362.908 172.947H358.909V63.4019C358.909 46.5867 352.229 30.4602 340.339 18.57C328.449 6.67987 312.323 2.65218e-05 295.507 2.01908e-10H63.4206C55.0945 -2.10113e-05 46.85 1.6399 39.1577 4.82612C31.4654 8.01234 24.4761 12.6825 18.5886 18.5699C12.7012 24.4573 8.03105 31.4466 4.84479 39.1389C1.65853 46.8311 0.0185731 55.0756 0.0185547 63.4017V664.376C0.0185481 672.702 1.65848 680.947 4.84471 688.639C8.03095 696.331 12.7011 703.321 18.5885 709.208C24.4759 715.095 31.4653 719.766 39.1575 722.952C46.8498 726.138 55.0943 727.778 63.4204 727.778H295.507C312.322 727.778 328.449 721.098 340.339 709.208C352.229 697.318 358.909 681.191 358.909 664.376V250.923H362.908V172.947Z" fill="#E6E6E6"/>
<path id="Vector_2" d="M298.066 16.495H267.771C269.164 19.9106 269.696 23.6165 269.319 27.286C268.943 30.9556 267.67 34.4763 265.612 37.538C263.555 40.5997 260.776 43.1084 257.52 44.8431C254.265 46.5777 250.633 47.4852 246.944 47.4855H113.984C110.295 47.4852 106.663 46.5777 103.408 44.8431C100.152 43.1084 97.3732 40.5997 95.3156 37.538C93.258 34.4763 91.9849 30.9556 91.6085 27.286C91.2321 23.6164 91.7639 19.9105 93.1571 16.4949H64.8615C52.3041 16.4949 40.261 21.4833 31.3815 30.3627C22.5021 39.2421 17.5137 51.2852 17.5137 63.8426V663.935C17.5137 670.153 18.7384 676.31 21.1178 682.055C23.4972 687.799 26.9849 693.019 31.3815 697.415C35.7781 701.812 40.9977 705.299 46.7422 707.679C52.4867 710.058 58.6436 711.283 64.8615 711.283H298.066C304.284 711.283 310.441 710.058 316.185 707.679C321.93 705.299 327.149 701.812 331.546 697.415C335.942 693.019 339.43 687.799 341.81 682.055C344.189 676.31 345.414 670.153 345.414 663.935V63.8427C345.414 57.6249 344.189 51.4679 341.809 45.7235C339.43 39.979 335.942 34.7594 331.546 30.3627C327.149 25.9661 321.93 22.4785 316.185 20.0991C310.441 17.7196 304.284 16.4949 298.066 16.495Z" fill="white"/>
<path id="phone-line1" d="M46.4629 298.928C46.1977 298.928 45.9433 298.823 45.7558 298.635C45.5682 298.448 45.4629 298.193 45.4629 297.928V262.928C45.4629 262.663 45.5682 262.409 45.7558 262.221C45.9433 262.034 46.1977 261.928 46.4629 261.928C46.7281 261.928 46.9825 262.034 47.17 262.221C47.3575 262.409 47.4629 262.663 47.4629 262.928V297.928C47.4629 298.193 47.3575 298.448 47.17 298.635C46.9825 298.823 46.7281 298.928 46.4629 298.928Z" fill="#CCCCCC"/>
<path id="phone-line2" d="M53.4629 304.428C53.1977 304.428 52.9433 304.323 52.7558 304.135C52.5682 303.948 52.4629 303.693 52.4629 303.428V257.428C52.4629 257.163 52.5682 256.909 52.7558 256.721C52.9433 256.534 53.1977 256.428 53.4629 256.428C53.7281 256.428 53.9824 256.534 54.17 256.721C54.3575 256.909 54.4629 257.163 54.4629 257.428V303.428C54.4629 303.693 54.3575 303.948 54.17 304.135C53.9824 304.323 53.7281 304.428 53.4629 304.428Z" fill="#CCCCCC"/>
<path id="phone-line3" d="M60.4629 307.928C60.1977 307.928 59.9433 307.823 59.7558 307.635C59.5682 307.448 59.4629 307.193 59.4629 306.928V253.928C59.4629 253.663 59.5682 253.409 59.7558 253.221C59.9433 253.034 60.1977 252.928 60.4629 252.928C60.7281 252.928 60.9824 253.034 61.17 253.221C61.3575 253.409 61.4629 253.663 61.4629 253.928V306.928C61.4629 307.193 61.3575 307.448 61.17 307.635C60.9824 307.823 60.7281 307.928 60.4629 307.928Z" fill="#CCCCCC"/>
<path id="phone-line4" d="M67.4629 316.928C67.1977 316.928 66.9433 316.823 66.7558 316.635C66.5682 316.448 66.4629 316.193 66.4629 315.928V244.928C66.4629 244.663 66.5682 244.409 66.7558 244.221C66.9433 244.034 67.1977 243.928 67.4629 243.928C67.7281 243.928 67.9824 244.034 68.17 244.221C68.3575 244.409 68.4629 244.663 68.4629 244.928V315.928C68.4629 316.193 68.3575 316.448 68.17 316.635C67.9824 316.823 67.7281 316.928 67.4629 316.928Z" fill="#CCCCCC"/>
<path id="phone-line5" d="M74.4629 330.428C74.1977 330.428 73.9433 330.323 73.7558 330.135C73.5682 329.948 73.4629 329.693 73.4629 329.428V231.428C73.4629 231.163 73.5682 230.909 73.7558 230.721C73.9433 230.534 74.1977 230.428 74.4629 230.428C74.7281 230.428 74.9824 230.534 75.17 230.721C75.3575 230.909 75.4629 231.163 75.4629 231.428V329.428C75.4629 329.693 75.3575 329.948 75.17 330.135C74.9824 330.323 74.7281 330.428 74.4629 330.428Z" fill="#CCCCCC"/>
<path id="phone-line6" d="M81.4629 316.928C81.1977 316.928 80.9433 316.823 80.7558 316.635C80.5682 316.448 80.4629 316.193 80.4629 315.928V244.928C80.4629 244.663 80.5682 244.409 80.7558 244.221C80.9433 244.034 81.1977 243.928 81.4629 243.928C81.7281 243.928 81.9824 244.034 82.17 244.221C82.3575 244.409 82.4629 244.663 82.4629 244.928V315.928C82.4629 316.193 82.3575 316.448 82.17 316.635C81.9824 316.823 81.7281 316.928 81.4629 316.928Z" fill="#CCCCCC"/>
<path id="phone-line7" d="M88.4629 323.428C88.1977 323.428 87.9433 323.323 87.7558 323.135C87.5682 322.948 87.4629 322.693 87.4629 322.428V238.428C87.4629 238.163 87.5682 237.909 87.7558 237.721C87.9433 237.534 88.1977 237.428 88.4629 237.428C88.7281 237.428 88.9824 237.534 89.17 237.721C89.3575 237.909 89.4629 238.163 89.4629 238.428V322.428C89.4629 322.693 89.3575 322.948 89.17 323.135C88.9824 323.323 88.7281 323.428 88.4629 323.428Z" fill="#CCCCCC"/>
<path id="phone-line8" d="M95.4629 306.428C95.1977 306.428 94.9433 306.323 94.7558 306.135C94.5682 305.948 94.4629 305.693 94.4629 305.428V255.428C94.4629 255.163 94.5682 254.909 94.7558 254.721C94.9433 254.534 95.1977 254.428 95.4629 254.428C95.7281 254.428 95.9824 254.534 96.17 254.721C96.3575 254.909 96.4629 255.163 96.4629 255.428V305.428C96.4629 305.693 96.3575 305.948 96.17 306.135C95.9824 306.323 95.7281 306.428 95.4629 306.428Z" fill="#CCCCCC"/>
<path id="phone-line9" d="M102.463 310.428C102.198 310.428 101.943 310.323 101.756 310.135C101.568 309.948 101.463 309.693 101.463 309.428V251.428C101.463 251.163 101.568 250.909 101.756 250.721C101.943 250.534 102.198 250.428 102.463 250.428C102.728 250.428 102.982 250.534 103.17 250.721C103.358 250.909 103.463 251.163 103.463 251.428V309.428C103.463 309.693 103.358 309.948 103.17 310.135C102.982 310.323 102.728 310.428 102.463 310.428Z" fill="#CCCCCC"/>
<path id="phone-line10" d="M109.463 298.928C109.198 298.928 108.943 298.823 108.756 298.635C108.568 298.448 108.463 298.193 108.463 297.928V262.928C108.463 262.663 108.568 262.409 108.756 262.221C108.943 262.034 109.198 261.928 109.463 261.928C109.728 261.928 109.982 262.034 110.17 262.221C110.358 262.409 110.463 262.663 110.463 262.928V297.928C110.463 298.193 110.358 298.448 110.17 298.635C109.982 298.823 109.728 298.928 109.463 298.928Z" fill="#CCCCCC"/>
<path id="phone-line11" d="M115.463 298.928C115.198 298.928 114.943 298.823 114.756 298.635C114.568 298.448 114.463 298.193 114.463 297.928V262.928C114.463 262.663 114.568 262.409 114.756 262.221C114.943 262.034 115.198 261.928 115.463 261.928C115.728 261.928 115.982 262.034 116.17 262.221C116.358 262.409 116.463 262.663 116.463 262.928V297.928C116.463 298.193 116.358 298.448 116.17 298.635C115.982 298.823 115.728 298.928 115.463 298.928Z" fill="#CCCCCC"/>
<path id="phone-line12" d="M122.463 304.428C122.198 304.428 121.943 304.323 121.756 304.135C121.568 303.948 121.463 303.693 121.463 303.428V257.428C121.463 257.163 121.568 256.909 121.756 256.721C121.943 256.534 122.198 256.428 122.463 256.428C122.728 256.428 122.982 256.534 123.17 256.721C123.358 256.909 123.463 257.163 123.463 257.428V303.428C123.463 303.693 123.358 303.948 123.17 304.135C122.982 304.323 122.728 304.428 122.463 304.428Z" fill="#CCCCCC"/>
<path id="phone-line13" d="M129.463 307.928C129.198 307.928 128.943 307.823 128.756 307.635C128.568 307.448 128.463 307.193 128.463 306.928V253.928C128.463 253.663 128.568 253.409 128.756 253.221C128.943 253.034 129.198 252.928 129.463 252.928C129.728 252.928 129.982 253.034 130.17 253.221C130.358 253.409 130.463 253.663 130.463 253.928V306.928C130.463 307.193 130.358 307.448 130.17 307.635C129.982 307.823 129.728 307.928 129.463 307.928Z" fill="#CCCCCC"/>
<path id="phone-line14" d="M136.463 316.928C136.198 316.928 135.943 316.823 135.756 316.635C135.568 316.448 135.463 316.193 135.463 315.928V244.928C135.463 244.663 135.568 244.409 135.756 244.221C135.943 244.034 136.198 243.928 136.463 243.928C136.728 243.928 136.982 244.034 137.17 244.221C137.358 244.409 137.463 244.663 137.463 244.928V315.928C137.463 316.193 137.358 316.448 137.17 316.635C136.982 316.823 136.728 316.928 136.463 316.928Z" fill="#CCCCCC"/>
<path id="phone-line15" d="M143.463 346.428C143.198 346.428 142.943 346.323 142.756 346.135C142.568 345.948 142.463 345.693 142.463 345.428V215.428C142.463 215.163 142.568 214.909 142.756 214.721C142.943 214.534 143.198 214.428 143.463 214.428C143.728 214.428 143.982 214.534 144.17 214.721C144.358 214.909 144.463 215.163 144.463 215.428V345.428C144.463 345.693 144.358 345.948 144.17 346.135C143.982 346.323 143.728 346.428 143.463 346.428Z" fill="#CCCCCC"/>
<path id="phone-line16" d="M150.463 316.928C150.198 316.928 149.943 316.823 149.756 316.635C149.568 316.448 149.463 316.193 149.463 315.928V244.928C149.463 244.663 149.568 244.409 149.756 244.221C149.943 244.034 150.198 243.928 150.463 243.928C150.728 243.928 150.982 244.034 151.17 244.221C151.358 244.409 151.463 244.663 151.463 244.928V315.928C151.463 316.193 151.358 316.448 151.17 316.635C150.982 316.823 150.728 316.928 150.463 316.928Z" fill="#CCCCCC"/>
<path id="phone-line17" d="M157.463 323.428C157.198 323.428 156.943 323.323 156.756 323.135C156.568 322.948 156.463 322.693 156.463 322.428V238.428C156.463 238.163 156.568 237.909 156.756 237.721C156.943 237.534 157.198 237.428 157.463 237.428C157.728 237.428 157.982 237.534 158.17 237.721C158.358 237.909 158.463 238.163 158.463 238.428V322.428C158.463 322.693 158.358 322.948 158.17 323.135C157.982 323.323 157.728 323.428 157.463 323.428Z" fill="#CCCCCC"/>
<path id="phone-line18" d="M164.463 306.428C164.198 306.428 163.943 306.323 163.756 306.135C163.568 305.948 163.463 305.693 163.463 305.428V255.428C163.463 255.163 163.568 254.909 163.756 254.721C163.943 254.534 164.198 254.428 164.463 254.428C164.728 254.428 164.982 254.534 165.17 254.721C165.358 254.909 165.463 255.163 165.463 255.428V305.428C165.463 305.693 165.358 305.948 165.17 306.135C164.982 306.323 164.728 306.428 164.463 306.428Z" fill="#CCCCCC"/>
<path id="phone-line19" d="M171.463 310.428C171.198 310.428 170.943 310.323 170.756 310.135C170.568 309.948 170.463 309.693 170.463 309.428V251.428C170.463 251.163 170.568 250.909 170.756 250.721C170.943 250.534 171.198 250.428 171.463 250.428C171.728 250.428 171.982 250.534 172.17 250.721C172.358 250.909 172.463 251.163 172.463 251.428V309.428C172.463 309.693 172.358 309.948 172.17 310.135C171.982 310.323 171.728 310.428 171.463 310.428Z" fill="#CCCCCC"/>
<path id="phone-line20" d="M178.463 298.928C178.198 298.928 177.943 298.823 177.756 298.635C177.568 298.448 177.463 298.193 177.463 297.928V262.928C177.463 262.663 177.568 262.409 177.756 262.221C177.943 262.034 178.198 261.928 178.463 261.928C178.728 261.928 178.982 262.034 179.17 262.221C179.358 262.409 179.463 262.663 179.463 262.928V297.928C179.463 298.193 179.358 298.448 179.17 298.635C178.982 298.823 178.728 298.928 178.463 298.928Z" fill="#CCCCCC"/>
<path id="phone-line21" d="M184.463 298.928C184.198 298.928 183.943 298.823 183.756 298.635C183.568 298.448 183.463 298.193 183.463 297.928V262.928C183.463 262.663 183.568 262.409 183.756 262.221C183.943 262.034 184.198 261.928 184.463 261.928C184.728 261.928 184.982 262.034 185.17 262.221C185.358 262.409 185.463 262.663 185.463 262.928V297.928C185.463 298.193 185.358 298.448 185.17 298.635C184.982 298.823 184.728 298.928 184.463 298.928Z" fill="#CCCCCC"/>
<path id="phone-line22" d="M191.463 304.428C191.198 304.428 190.943 304.323 190.756 304.135C190.568 303.948 190.463 303.693 190.463 303.428V257.428C190.463 257.163 190.568 256.909 190.756 256.721C190.943 256.534 191.198 256.428 191.463 256.428C191.728 256.428 191.982 256.534 192.17 256.721C192.358 256.909 192.463 257.163 192.463 257.428V303.428C192.463 303.693 192.358 303.948 192.17 304.135C191.982 304.323 191.728 304.428 191.463 304.428Z" fill="#CCCCCC"/>
<path id="phone-line23" d="M198.463 307.928C198.198 307.928 197.943 307.823 197.756 307.635C197.568 307.448 197.463 307.193 197.463 306.928V253.928C197.463 253.663 197.568 253.409 197.756 253.221C197.943 253.034 198.198 252.928 198.463 252.928C198.728 252.928 198.982 253.034 199.17 253.221C199.358 253.409 199.463 253.663 199.463 253.928V306.928C199.463 307.193 199.358 307.448 199.17 307.635C198.982 307.823 198.728 307.928 198.463 307.928Z" fill="#CCCCCC"/>
<path id="phone-line24" d="M205.463 316.928C205.198 316.928 204.943 316.823 204.756 316.635C204.568 316.448 204.463 316.193 204.463 315.928V244.928C204.463 244.663 204.568 244.409 204.756 244.221C204.943 244.034 205.198 243.928 205.463 243.928C205.728 243.928 205.982 244.034 206.17 244.221C206.358 244.409 206.463 244.663 206.463 244.928V315.928C206.463 316.193 206.358 316.448 206.17 316.635C205.982 316.823 205.728 316.928 205.463 316.928Z" fill="#CCCCCC"/>
<path id="phone-line25" d="M212.463 330.428C212.198 330.428 211.943 330.323 211.756 330.135C211.568 329.948 211.463 329.693 211.463 329.428V231.428C211.463 231.163 211.568 230.909 211.756 230.721C211.943 230.534 212.198 230.428 212.463 230.428C212.728 230.428 212.982 230.534 213.17 230.721C213.358 230.909 213.463 231.163 213.463 231.428V329.428C213.463 329.693 213.358 329.948 213.17 330.135C212.982 330.323 212.728 330.428 212.463 330.428Z" fill="#CCCCCC"/>
<path id="phone-green-line" d="M217.463 374.678C217.198 374.678 216.943 374.573 216.756 374.385C216.568 374.198 216.463 373.943 216.463 373.678V187.178C216.463 186.913 216.568 186.659 216.756 186.471C216.943 186.284 217.198 186.178 217.463 186.178C217.728 186.178 217.982 186.284 218.17 186.471C218.358 186.659 218.463 186.913 218.463 187.178V373.678C218.463 373.943 218.358 374.198 218.17 374.385C217.982 374.573 217.728 374.678 217.463 374.678Z" fill="#5EA51D"/>
<path id="phone-line26" d="M219.463 316.928C219.198 316.928 218.943 316.823 218.756 316.635C218.568 316.448 218.463 316.193 218.463 315.928V244.928C218.463 244.663 218.568 244.409 218.756 244.221C218.943 244.034 219.198 243.928 219.463 243.928C219.728 243.928 219.982 244.034 220.17 244.221C220.358 244.409 220.463 244.663 220.463 244.928V315.928C220.463 316.193 220.358 316.448 220.17 316.635C219.982 316.823 219.728 316.928 219.463 316.928Z" fill="#CCCCCC"/>
<path id="phone-line27" d="M226.463 323.428C226.198 323.428 225.943 323.323 225.756 323.135C225.568 322.948 225.463 322.693 225.463 322.428V238.428C225.463 238.163 225.568 237.909 225.756 237.721C225.943 237.534 226.198 237.428 226.463 237.428C226.728 237.428 226.982 237.534 227.17 237.721C227.358 237.909 227.463 238.163 227.463 238.428V322.428C227.463 322.693 227.358 322.948 227.17 323.135C226.982 323.323 226.728 323.428 226.463 323.428Z" fill="#CCCCCC"/>
<path id="phone-line28" d="M233.463 306.428C233.198 306.428 232.943 306.323 232.756 306.135C232.568 305.948 232.463 305.693 232.463 305.428V255.428C232.463 255.163 232.568 254.909 232.756 254.721C232.943 254.534 233.198 254.428 233.463 254.428C233.728 254.428 233.982 254.534 234.17 254.721C234.358 254.909 234.463 255.163 234.463 255.428V305.428C234.463 305.693 234.358 305.948 234.17 306.135C233.982 306.323 233.728 306.428 233.463 306.428Z" fill="#CCCCCC"/>
<path id="phone-line29" d="M240.463 310.428C240.198 310.428 239.943 310.323 239.756 310.135C239.568 309.948 239.463 309.693 239.463 309.428V251.428C239.463 251.163 239.568 250.909 239.756 250.721C239.943 250.534 240.198 250.428 240.463 250.428C240.728 250.428 240.982 250.534 241.17 250.721C241.358 250.909 241.463 251.163 241.463 251.428V309.428C241.463 309.693 241.358 309.948 241.17 310.135C240.982 310.323 240.728 310.428 240.463 310.428Z" fill="#CCCCCC"/>
<path id="phone-line30" d="M247.463 298.928C247.198 298.928 246.943 298.823 246.756 298.635C246.568 298.448 246.463 298.193 246.463 297.928V262.928C246.463 262.663 246.568 262.409 246.756 262.221C246.943 262.034 247.198 261.928 247.463 261.928C247.728 261.928 247.982 262.034 248.17 262.221C248.358 262.409 248.463 262.663 248.463 262.928V297.928C248.463 298.193 248.358 298.448 248.17 298.635C247.982 298.823 247.728 298.928 247.463 298.928Z" fill="#CCCCCC"/>
<path id="phone-line31" d="M253.463 298.928C253.198 298.928 252.943 298.823 252.756 298.635C252.568 298.448 252.463 298.193 252.463 297.928V262.928C252.463 262.663 252.568 262.409 252.756 262.221C252.943 262.034 253.198 261.928 253.463 261.928C253.728 261.928 253.982 262.034 254.17 262.221C254.358 262.409 254.463 262.663 254.463 262.928V297.928C254.463 298.193 254.358 298.448 254.17 298.635C253.982 298.823 253.728 298.928 253.463 298.928Z" fill="#CCCCCC"/>
<path id="phone-line32" d="M260.463 304.428C260.198 304.428 259.943 304.323 259.756 304.135C259.568 303.948 259.463 303.693 259.463 303.428V257.428C259.463 257.163 259.568 256.909 259.756 256.721C259.943 256.534 260.198 256.428 260.463 256.428C260.728 256.428 260.982 256.534 261.17 256.721C261.358 256.909 261.463 257.163 261.463 257.428V303.428C261.463 303.693 261.358 303.948 261.17 304.135C260.982 304.323 260.728 304.428 260.463 304.428Z" fill="#CCCCCC"/>
<path id="phone-line33" d="M267.463 307.928C267.198 307.928 266.943 307.823 266.756 307.635C266.568 307.448 266.463 307.193 266.463 306.928V253.928C266.463 253.663 266.568 253.409 266.756 253.221C266.943 253.034 267.198 252.928 267.463 252.928C267.728 252.928 267.982 253.034 268.17 253.221C268.358 253.409 268.463 253.663 268.463 253.928V306.928C268.463 307.193 268.358 307.448 268.17 307.635C267.982 307.823 267.728 307.928 267.463 307.928Z" fill="#CCCCCC"/>
<path id="phone-line34" d="M274.463 316.928C274.198 316.928 273.943 316.823 273.756 316.635C273.568 316.448 273.463 316.193 273.463 315.928V244.928C273.463 244.663 273.568 244.409 273.756 244.221C273.943 244.034 274.198 243.928 274.463 243.928C274.728 243.928 274.982 244.034 275.17 244.221C275.358 244.409 275.463 244.663 275.463 244.928V315.928C275.463 316.193 275.358 316.448 275.17 316.635C274.982 316.823 274.728 316.928 274.463 316.928Z" fill="#CCCCCC"/>
<path id="phone-line35" d="M281.463 346.428C281.198 346.428 280.943 346.323 280.756 346.135C280.568 345.948 280.463 345.693 280.463 345.428V215.428C280.463 215.163 280.568 214.909 280.756 214.721C280.943 214.534 281.198 214.428 281.463 214.428C281.728 214.428 281.982 214.534 282.17 214.721C282.358 214.909 282.463 215.163 282.463 215.428V345.428C282.463 345.693 282.358 345.948 282.17 346.135C281.982 346.323 281.728 346.428 281.463 346.428Z" fill="#CCCCCC"/>
<path id="phone-line36" d="M288.463 316.928C288.198 316.928 287.943 316.823 287.756 316.635C287.568 316.448 287.463 316.193 287.463 315.928V244.928C287.463 244.663 287.568 244.409 287.756 244.221C287.943 244.034 288.198 243.928 288.463 243.928C288.728 243.928 288.982 244.034 289.17 244.221C289.358 244.409 289.463 244.663 289.463 244.928V315.928C289.463 316.193 289.358 316.448 289.17 316.635C288.982 316.823 288.728 316.928 288.463 316.928Z" fill="#CCCCCC"/>
<path id="phone-line37" d="M295.463 323.428C295.198 323.428 294.943 323.323 294.756 323.135C294.568 322.948 294.463 322.693 294.463 322.428V238.428C294.463 238.163 294.568 237.909 294.756 237.721C294.943 237.534 295.198 237.428 295.463 237.428C295.728 237.428 295.982 237.534 296.17 237.721C296.358 237.909 296.463 238.163 296.463 238.428V322.428C296.463 322.693 296.358 322.948 296.17 323.135C295.982 323.323 295.728 323.428 295.463 323.428Z" fill="#CCCCCC"/>
<path id="phone-line38" d="M302.463 306.428C302.198 306.428 301.943 306.323 301.756 306.135C301.568 305.948 301.463 305.693 301.463 305.428V255.428C301.463 255.163 301.568 254.909 301.756 254.721C301.943 254.534 302.198 254.428 302.463 254.428C302.728 254.428 302.982 254.534 303.17 254.721C303.358 254.909 303.463 255.163 303.463 255.428V305.428C303.463 305.693 303.358 305.948 303.17 306.135C302.982 306.323 302.728 306.428 302.463 306.428Z" fill="#CCCCCC"/>
<path id="phone-line39" d="M309.463 310.428C309.198 310.428 308.943 310.323 308.756 310.135C308.568 309.948 308.463 309.693 308.463 309.428V251.428C308.463 251.163 308.568 250.909 308.756 250.721C308.943 250.534 309.198 250.428 309.463 250.428C309.728 250.428 309.983 250.534 310.17 250.721C310.358 250.909 310.463 251.163 310.463 251.428V309.428C310.463 309.693 310.358 309.948 310.17 310.135C309.983 310.323 309.728 310.428 309.463 310.428Z" fill="#CCCCCC"/>
<path id="phone-line40" d="M316.463 298.928C316.198 298.928 315.943 298.823 315.756 298.635C315.568 298.448 315.463 298.193 315.463 297.928V262.928C315.463 262.663 315.568 262.409 315.756 262.221C315.943 262.034 316.198 261.928 316.463 261.928C316.728 261.928 316.983 262.034 317.17 262.221C317.358 262.409 317.463 262.663 317.463 262.928V297.928C317.463 298.193 317.358 298.448 317.17 298.635C316.983 298.823 316.728 298.928 316.463 298.928Z" fill="#CCCCCC"/>
<path id="Vector_3" d="M74.4629 540.451V576.151L102.463 558.301L74.4629 540.451Z" fill="#3F3D56"/>
<path id="Vector_4" d="M193.621 572.462C201.42 564.67 201.403 552.009 193.584 544.183C185.765 536.357 173.104 536.328 165.305 544.12C157.507 551.911 157.523 564.572 165.342 572.398C173.162 580.225 185.822 580.253 193.621 572.462Z" fill="#5EA51D"/>
<path id="Vector_5" d="M266.753 574.291H259.903C258.995 574.291 258.124 573.931 257.481 573.289C256.838 572.648 256.475 571.779 256.473 570.871V545.731C256.475 544.822 256.838 543.951 257.48 543.308C258.123 542.665 258.994 542.303 259.903 542.301H266.753C267.662 542.301 268.535 542.662 269.178 543.305C269.821 543.948 270.183 544.821 270.183 545.731V570.881C270.181 571.33 270.092 571.774 269.919 572.189C269.745 572.603 269.492 572.979 269.174 573.296C268.855 573.613 268.478 573.863 268.062 574.034C267.647 574.205 267.202 574.292 266.753 574.291ZM288.463 570.881V545.731C288.463 544.823 288.103 543.952 287.462 543.309C286.82 542.666 285.951 542.303 285.043 542.301H278.183C277.274 542.303 276.403 542.665 275.76 543.308C275.118 543.951 274.755 544.822 274.753 545.731V570.881C274.755 571.789 275.118 572.658 275.761 573.299C276.404 573.941 277.275 574.301 278.183 574.301H285.043C285.492 574.301 285.937 574.212 286.351 574.04C286.766 573.868 287.143 573.616 287.461 573.299C287.779 572.981 288.03 572.604 288.202 572.189C288.374 571.774 288.463 571.33 288.463 570.881Z" fill="#3F3D56"/>
<path id="Vector_6" d="M269.11 401.442H93.8161C93.5009 401.441 93.199 401.315 92.9764 401.092C92.7539 400.869 92.6289 400.566 92.6289 400.251C92.6289 399.936 92.7539 399.634 92.9764 399.411C93.199 399.187 93.5009 399.061 93.8161 399.061H269.11C269.426 399.061 269.729 399.186 269.952 399.409C270.175 399.633 270.301 399.935 270.301 400.251C270.301 400.567 270.175 400.87 269.952 401.093C269.729 401.316 269.426 401.442 269.11 401.442Z" fill="#CCCCCC"/>
<path id="Vector_7" d="M269.11 161.442H93.8161C93.5009 161.441 93.199 161.315 92.9764 161.092C92.7539 160.869 92.6289 160.566 92.6289 160.251C92.6289 159.936 92.7539 159.634 92.9764 159.411C93.199 159.187 93.5009 159.061 93.8161 159.061H269.11C269.425 159.061 269.727 159.187 269.95 159.411C270.172 159.634 270.297 159.936 270.297 160.251C270.297 160.566 270.172 160.869 269.95 161.092C269.727 161.315 269.425 161.441 269.11 161.442Z" fill="#CCCCCC"/>
</g>
</svg>
