<svg width="471" height="635" viewBox="0 0 471 635" fill="none" xmlns="http://www.w3.org/2000/svg">
<g id="Group 23">
<path id="Vector" d="M437.632 369H179.632C170.883 368.99 162.495 365.51 156.309 359.324C150.122 353.137 146.642 344.749 146.632 336V33C146.642 24.2509 150.122 15.863 156.309 9.67639C162.495 3.48983 170.883 0.00988299 179.632 0H419.659L470.632 40.6289V336C470.622 344.749 467.142 353.137 460.956 359.324C454.769 365.51 446.381 368.99 437.632 369Z" fill="#E6E6E6"/>
<path id="Vector_2" d="M179.632 9.5C173.402 9.50702 167.429 11.9852 163.023 16.3907C158.617 20.7963 156.139 26.7696 156.132 33V336C156.139 342.23 158.617 348.204 163.023 352.609C167.429 357.015 173.402 359.493 179.632 359.5H437.632C443.863 359.493 449.836 357.015 454.242 352.609C458.647 348.204 461.125 342.23 461.132 336V45.2056L416.336 9.5H179.632Z" fill="white"/>
<path id="Vector_3" d="M387.451 97.6043H269.988C269.266 97.6043 268.551 97.4621 267.885 97.186C267.218 96.9098 266.612 96.505 266.102 95.9947C265.591 95.4844 265.187 94.8786 264.911 94.2119C264.634 93.5452 264.492 92.8306 264.492 92.1089C264.492 91.3872 264.634 90.6727 264.911 90.0059C265.187 89.3392 265.591 88.7334 266.102 88.2231C266.612 87.7128 267.218 87.308 267.885 87.0318C268.551 86.7557 269.266 86.6135 269.988 86.6135H387.451C388.173 86.6135 388.888 86.7557 389.554 87.0318C390.221 87.308 390.827 87.7128 391.337 88.2231C391.848 88.7334 392.252 89.3392 392.528 90.0059C392.805 90.6727 392.947 91.3872 392.947 92.1089C392.947 92.8306 392.805 93.5452 392.528 94.2119C392.252 94.8786 391.848 95.4844 391.337 95.9947C390.827 96.505 390.221 96.9098 389.554 97.186C388.888 97.4621 388.173 97.6043 387.451 97.6043Z" fill="#CCCCCC"/>
<path id="Vector_4" d="M410.12 116.151H269.988C268.53 116.151 267.132 115.572 266.102 114.542C265.071 113.511 264.492 112.113 264.492 110.656C264.492 109.198 265.071 107.801 266.102 106.77C267.132 105.739 268.53 105.16 269.988 105.16H410.12C411.577 105.16 412.975 105.739 414.006 106.77C415.036 107.801 415.615 109.198 415.615 110.656C415.615 112.113 415.036 113.511 414.006 114.542C412.975 115.572 411.577 116.151 410.12 116.151Z" fill="#CCCCCC"/>
<path id="Vector_5" d="M387.451 180.722H269.988C268.53 180.722 267.132 180.143 266.102 179.112C265.071 178.082 264.492 176.684 264.492 175.227C264.492 173.769 265.071 172.371 266.102 171.341C267.132 170.31 268.53 169.731 269.988 169.731H387.451C388.909 169.731 390.307 170.31 391.337 171.341C392.368 172.371 392.947 173.769 392.947 175.227C392.947 176.684 392.368 178.082 391.337 179.112C390.307 180.143 388.909 180.722 387.451 180.722Z" fill="#CCCCCC"/>
<path id="Vector_6" d="M410.12 199.269H269.988C268.53 199.269 267.132 198.69 266.102 197.659C265.071 196.629 264.492 195.231 264.492 193.773C264.492 192.316 265.071 190.918 266.102 189.888C267.132 188.857 268.53 188.278 269.988 188.278H410.12C411.577 188.278 412.975 188.857 414.006 189.888C415.036 190.918 415.615 192.316 415.615 193.773C415.615 195.231 415.036 196.629 414.006 197.659C412.975 198.69 411.577 199.269 410.12 199.269Z" fill="#CCCCCC"/>
<path id="Vector_7" d="M387.451 263.84H269.988C268.53 263.84 267.132 263.261 266.102 262.23C265.071 261.199 264.492 259.802 264.492 258.344C264.492 256.887 265.071 255.489 266.102 254.458C267.132 253.428 268.53 252.849 269.988 252.849H387.451C388.909 252.849 390.307 253.428 391.337 254.458C392.368 255.489 392.947 256.887 392.947 258.344C392.947 259.802 392.368 261.199 391.337 262.23C390.307 263.261 388.909 263.84 387.451 263.84Z" fill="#CCCCCC"/>
<path id="Vector_8" d="M410.12 282.387H269.988C268.53 282.387 267.132 281.808 266.102 280.777C265.071 279.746 264.492 278.349 264.492 276.891C264.492 275.434 265.071 274.036 266.102 273.005C267.132 271.975 268.53 271.396 269.988 271.396H410.12C411.577 271.396 412.975 271.975 414.006 273.005C415.036 274.036 415.615 275.434 415.615 276.891C415.615 278.349 415.036 279.746 414.006 280.777C412.975 281.808 411.577 282.387 410.12 282.387Z" fill="#CCCCCC"/>
<path id="task-circle1" d="M221.073 120.806C231.8 120.806 240.496 112.109 240.496 101.382C240.496 90.6553 231.8 81.9592 221.073 81.9592C210.346 81.9592 201.65 90.6553 201.65 101.382C201.65 112.109 210.346 120.806 221.073 120.806Z" fill="#5EA51D"/>
<path id="task-tick1" d="M219.148 108.792C218.711 108.793 218.286 108.651 217.936 108.389L217.915 108.373L213.35 104.881C212.923 104.553 212.644 104.07 212.574 103.537C212.504 103.004 212.648 102.465 212.976 102.038C213.303 101.611 213.786 101.332 214.319 101.261C214.852 101.191 215.391 101.334 215.818 101.661L218.775 103.928L225.762 94.8135C225.924 94.6022 226.126 94.4249 226.356 94.2916C226.587 94.1584 226.841 94.0719 227.105 94.037C227.369 94.0021 227.637 94.0196 227.895 94.0884C228.152 94.1572 228.393 94.276 228.604 94.438L228.562 94.4987L228.606 94.4385C229.033 94.7661 229.311 95.2495 229.382 95.7826C229.452 96.3157 229.308 96.8549 228.981 97.2819L220.763 107.998C220.573 108.245 220.329 108.445 220.049 108.582C219.769 108.719 219.462 108.79 219.15 108.789L219.148 108.792Z" fill="white"/>
<path id="task-circle2" d="M223.073 203.806C233.8 203.806 242.496 195.109 242.496 184.382C242.496 173.655 233.8 164.959 223.073 164.959C212.346 164.959 203.65 173.655 203.65 184.382C203.65 195.109 212.346 203.806 223.073 203.806Z" fill="#CCCCCC"/>
<path id="task-tick2" d="M221.148 191.792C220.711 191.793 220.286 191.651 219.936 191.389L219.915 191.373L215.35 187.881C214.923 187.553 214.644 187.07 214.574 186.537C214.504 186.004 214.648 185.465 214.976 185.038C215.303 184.611 215.786 184.332 216.319 184.261C216.852 184.191 217.391 184.334 217.818 184.661L220.775 186.928L227.762 177.814C227.924 177.602 228.126 177.425 228.356 177.292C228.587 177.158 228.841 177.072 229.105 177.037C229.369 177.002 229.637 177.02 229.895 177.088C230.152 177.157 230.393 177.276 230.604 177.438L230.562 177.499L230.606 177.438C231.033 177.766 231.311 178.25 231.382 178.783C231.452 179.316 231.308 179.855 230.981 180.282L222.763 190.998C222.573 191.245 222.329 191.445 222.049 191.582C221.769 191.719 221.462 191.79 221.15 191.789L221.148 191.792Z" fill="#CCCCCC"/>
<path id="task-circle3" d="M221.073 286.806C231.8 286.806 240.496 278.109 240.496 267.382C240.496 256.655 231.8 247.959 221.073 247.959C210.346 247.959 201.65 256.655 201.65 267.382C201.65 278.109 210.346 286.806 221.073 286.806Z" fill="#CCCCCC"/>
<path id="task-tick3" d="M219.148 274.792C218.711 274.793 218.286 274.651 217.936 274.389L217.915 274.373L213.35 270.881C212.923 270.553 212.644 270.07 212.574 269.537C212.504 269.004 212.648 268.465 212.976 268.038C213.303 267.611 213.786 267.332 214.319 267.261C214.852 267.191 215.391 267.334 215.818 267.661L218.775 269.928L225.762 260.814C225.924 260.602 226.126 260.425 226.356 260.292C226.587 260.158 226.841 260.072 227.105 260.037C227.369 260.002 227.637 260.02 227.895 260.088C228.152 260.157 228.393 260.276 228.604 260.438L228.562 260.499L228.606 260.438C229.033 260.766 229.311 261.25 229.382 261.783C229.452 262.316 229.308 262.855 228.981 263.282L220.763 273.998C220.573 274.245 220.329 274.445 220.049 274.582C219.769 274.719 219.462 274.79 219.15 274.789L219.148 274.792Z" fill="#CCCCCC"/>
<path id="Vector_9" d="M469.64 41.9365H429.711C426.796 41.9365 424.001 40.7786 421.94 38.7174C419.878 36.6562 418.72 33.8607 418.72 30.9458V1.45476C418.72 1.32564 418.757 1.19913 418.825 1.08975C418.894 0.980372 418.992 0.892543 419.108 0.836334C419.225 0.780125 419.354 0.757812 419.483 0.771957C419.611 0.786102 419.733 0.83613 419.834 0.916305L470.067 40.7111C470.179 40.7997 470.26 40.9208 470.3 41.0578C470.34 41.1948 470.336 41.3407 470.289 41.4754C470.242 41.6101 470.154 41.7269 470.038 41.8095C469.922 41.8921 469.783 41.9365 469.64 41.9365Z" fill="#E6E6E6"/>
<path id="Vector_10" d="M199.348 425.772L46.702 457.947C42.2907 458.872 37.6928 458.009 33.917 455.548C30.1411 453.087 27.4958 449.228 26.5612 444.819L0.367424 320.55C-0.557212 316.138 0.305713 311.541 2.76688 307.765C5.22805 303.989 9.08647 301.343 13.4956 300.409L166.142 268.234C170.553 267.309 175.151 268.172 178.927 270.633C182.702 273.094 185.348 276.953 186.282 281.362L212.476 405.632C213.401 410.043 212.538 414.641 210.077 418.417C207.615 422.192 203.757 424.838 199.348 425.772Z" fill="white"/>
<path id="Vector_11" d="M199.348 425.772L46.702 457.947C42.2907 458.872 37.6928 458.009 33.917 455.548C30.1411 453.087 27.4958 449.228 26.5612 444.819L0.367424 320.55C-0.557212 316.138 0.305713 311.541 2.76688 307.765C5.22805 303.989 9.08647 301.343 13.4956 300.409L166.142 268.234C170.553 267.309 175.151 268.172 178.927 270.633C182.702 273.094 185.348 276.953 186.282 281.362L212.476 405.632C213.401 410.043 212.538 414.641 210.077 418.417C207.615 422.192 203.757 424.838 199.348 425.772ZM13.9081 302.366C10.0177 303.191 6.61325 305.525 4.44163 308.856C2.27001 312.188 1.50858 316.245 2.32441 320.137L28.5182 444.407C29.3429 448.297 31.677 451.702 35.0086 453.873C38.3402 456.045 42.3972 456.806 46.2895 455.99L198.935 423.815C202.826 422.991 206.23 420.657 208.402 417.325C210.573 413.993 211.335 409.936 210.519 406.044L184.325 281.775C183.501 277.884 181.167 274.48 177.835 272.308C174.503 270.137 170.446 269.375 166.554 270.191L13.9081 302.366Z" fill="#3F3D56"/>
<path id="Path 411" d="M156.657 309.209L79.619 325.447C78.9449 325.604 78.2364 325.498 77.637 325.153C77.0375 324.807 76.5917 324.246 76.3897 323.584C76.2973 323.239 76.2763 322.879 76.3278 322.525C76.3793 322.171 76.5023 321.832 76.6893 321.527C76.8763 321.223 77.1234 320.96 77.4155 320.754C77.7076 320.548 78.0386 320.404 78.3883 320.33L156.809 303.801C159.871 305.526 158.904 308.736 156.657 309.209Z" fill="#CCCCCC"/>
<path id="Path 412" d="M159.506 322.722L82.4672 338.96C81.793 339.117 81.0846 339.011 80.4851 338.666C79.8857 338.32 79.4399 337.759 79.2379 337.097C79.1455 336.752 79.1244 336.392 79.1759 336.038C79.2274 335.684 79.3504 335.345 79.5375 335.04C79.7245 334.736 79.9716 334.473 80.2637 334.267C80.5558 334.061 80.8868 333.917 81.2365 333.843L159.657 317.313C162.719 319.039 161.752 322.248 159.506 322.722Z" fill="#CCCCCC"/>
<path id="Path 413" d="M67.4349 350.165L43.9236 355.12C43.1558 355.282 42.3554 355.131 41.6982 354.703C41.0409 354.275 40.5805 353.603 40.4179 352.835L34.5697 325.09C34.4086 324.322 34.5588 323.522 34.9872 322.865C35.4156 322.207 36.0873 321.747 36.8548 321.584L60.3661 316.629C61.1339 316.468 61.9342 316.618 62.5913 317.046C63.2485 317.475 63.709 318.146 63.8718 318.914L69.72 346.659C69.8811 347.427 69.7309 348.227 69.3025 348.884C68.8741 349.542 68.2024 350.002 67.4349 350.165Z" fill="#CCCCCC"/>
<path id="Path 414" d="M165.113 350.437L47.5387 375.22C46.8645 375.376 46.1561 375.271 45.5567 374.925C44.9572 374.579 44.5114 374.019 44.3094 373.357C44.217 373.012 44.1959 372.651 44.2474 372.298C44.2989 371.944 44.422 371.605 44.609 371.3C44.796 370.996 45.0431 370.732 45.3352 370.526C45.6273 370.321 45.9583 370.176 46.308 370.103L165.266 345.029C168.328 346.754 167.36 349.964 165.113 350.437Z" fill="#CCCCCC"/>
<path id="Path 415" d="M167.963 363.954L50.3878 388.737C49.7137 388.893 49.0053 388.788 48.4058 388.442C47.8063 388.096 47.3605 387.536 47.1585 386.874C47.0661 386.529 47.0451 386.168 47.0966 385.815C47.1481 385.461 47.2711 385.122 47.4581 384.817C47.6451 384.513 47.8922 384.249 48.1843 384.044C48.4764 383.838 48.8074 383.694 49.1571 383.62L168.115 358.546C171.177 360.271 170.209 363.481 167.963 363.954Z" fill="#CCCCCC"/>
<path id="Path 416" d="M170.81 377.462L53.2352 402.245C52.561 402.402 51.8526 402.296 51.2532 401.95C50.6537 401.605 50.2079 401.044 50.0059 400.382C49.9135 400.037 49.8925 399.676 49.944 399.323C49.9955 398.969 50.1185 398.63 50.3055 398.325C50.4925 398.021 50.7396 397.758 51.0317 397.552C51.3238 397.346 51.6549 397.202 52.0045 397.128L170.962 372.054C174.024 373.779 173.056 376.989 170.81 377.462Z" fill="#CCCCCC"/>
<path id="Path 417" d="M173.659 390.978L56.0841 415.761C55.41 415.918 54.7015 415.812 54.1021 415.466C53.5026 415.121 53.0568 414.56 52.8548 413.898C52.7624 413.553 52.7413 413.192 52.7929 412.839C52.8444 412.485 52.9674 412.146 53.1544 411.841C53.3414 411.537 53.5885 411.274 53.8806 411.068C54.1727 410.862 54.5037 410.718 54.8534 410.644L173.811 385.57C176.873 387.295 175.905 390.505 173.659 390.978Z" fill="#CCCCCC"/>
<path id="Path 418" d="M176.506 404.488L58.9317 429.27C58.2576 429.427 57.5492 429.322 56.9497 428.976C56.3503 428.63 55.9045 428.069 55.7025 427.407C55.6101 427.062 55.589 426.702 55.6405 426.348C55.692 425.995 55.815 425.655 56.0021 425.351C56.1891 425.046 56.4362 424.783 56.7283 424.577C57.0204 424.371 57.3514 424.227 57.701 424.153L176.659 399.079C179.721 400.805 178.753 404.014 176.506 404.488Z" fill="#CCCCCC"/>
<path id="Vector_12" d="M197.261 342.621C196.994 343.106 196.765 343.61 196.578 344.131L148.444 356.075L140.071 347.413L125.346 358.341L138.679 375.117C139.756 376.472 141.244 377.442 142.919 377.879C144.594 378.317 146.365 378.2 147.968 377.545L200.197 356.203C201.914 357.466 203.975 358.178 206.105 358.241C208.236 358.305 210.336 357.719 212.125 356.561C213.914 355.402 215.309 353.726 216.122 351.756C216.936 349.786 217.131 347.614 216.68 345.531C216.23 343.447 215.156 341.55 213.601 340.092C212.046 338.634 210.084 337.684 207.976 337.368C205.868 337.052 203.713 337.385 201.799 338.324C199.885 339.262 198.302 340.761 197.261 342.621Z" fill="#A0616A"/>
<path id="Vector_13" d="M32.9641 448.913C34.4647 448.45 35.8454 447.663 37.009 446.608C38.1726 445.553 39.0908 444.256 39.6989 442.808C40.307 441.36 40.5903 439.797 40.5287 438.227C40.467 436.658 40.0621 435.121 39.3423 433.725L72.4666 341.658L49.4629 337.582L24.1363 429.363C21.8715 430.727 20.1859 432.875 19.3989 435.399C18.6119 437.924 18.7783 440.649 19.8664 443.059C20.9546 445.469 22.8889 447.396 25.3029 448.475C27.7169 449.554 30.4428 449.71 32.9641 448.913Z" fill="#A0616A"/>
<path id="Vector_14" d="M68.2599 358.001L45.5474 349.284C44.9012 349.036 44.316 348.652 43.8317 348.157C43.3474 347.663 42.9755 347.07 42.7411 346.418C42.5067 345.767 42.4155 345.073 42.4735 344.383C42.5316 343.693 42.7377 343.024 43.0777 342.421L54.9927 321.296C56.2806 317.997 58.8241 315.343 62.0653 313.917C65.3066 312.491 68.9812 312.407 72.2837 313.686C75.5861 314.965 78.2468 317.5 79.6825 320.738C81.1182 323.975 81.2118 327.649 79.9426 330.955L74.6871 354.553C74.5364 355.228 74.2419 355.864 73.8236 356.415C73.4053 356.967 72.8731 357.421 72.2631 357.749C71.6532 358.076 70.9799 358.268 70.2891 358.312C69.5983 358.355 68.9061 358.249 68.2599 358.001Z" fill="#5EA51D"/>
<path id="Vector_15" d="M119.525 621.766L131.785 621.765L137.617 574.477L119.523 574.478L119.525 621.766Z" fill="#A0616A"/>
<path id="Vector_16" d="M116.397 617.763L140.541 617.762H140.542C142.563 617.762 144.564 618.16 146.43 618.933C148.297 619.706 149.993 620.84 151.422 622.269C152.851 623.697 153.984 625.394 154.758 627.26C155.531 629.127 155.929 631.128 155.929 633.148V633.648L116.398 633.65L116.397 617.763Z" fill="#2F2E41"/>
<path id="Vector_17" d="M50.525 621.766L62.785 621.765L68.6169 574.477L50.5229 574.478L50.525 621.766Z" fill="#A0616A"/>
<path id="Vector_18" d="M47.3975 617.763L71.5413 617.762H71.5423C73.5628 617.762 75.5636 618.16 77.4304 618.933C79.2972 619.706 80.9934 620.84 82.4222 622.269C83.851 623.697 84.9843 625.394 85.7575 627.26C86.5308 629.127 86.9288 631.128 86.9287 633.148V633.648L47.3982 633.65L47.3975 617.763Z" fill="#2F2E41"/>
<path id="Vector_19" d="M63.3774 602.733H47.8627C47.2538 602.733 46.6512 602.609 46.0915 602.369C45.5317 602.13 45.0264 601.779 44.6062 601.338C44.1859 600.897 43.8595 600.376 43.6467 599.806C43.4338 599.235 43.339 598.627 43.3679 598.019L50.7372 439.687L51.2016 439.674L126.121 437.721L140.781 596.144C140.838 596.738 140.775 597.337 140.598 597.907C140.421 598.476 140.132 599.005 139.749 599.462C139.365 599.919 138.895 600.295 138.364 600.569C137.834 600.842 137.255 601.008 136.66 601.055L119.234 602.449C118.139 602.536 117.051 602.22 116.173 601.56C115.295 600.9 114.688 599.942 114.467 598.867L92.1767 486.09C92.1159 485.748 91.9342 485.438 91.6646 485.218C91.3951 484.998 91.0556 484.882 90.7077 484.891H90.7016C90.3525 484.883 90.0123 485.001 89.7431 485.224C89.4739 485.446 89.2937 485.758 89.2353 486.102L67.7927 599.102C67.5896 600.124 67.0388 601.044 66.2338 601.706C65.4289 602.368 64.4195 602.731 63.3774 602.733Z" fill="#2F2E41"/>
<path id="Vector_20" d="M83.5615 458.242C71.8552 458.242 59.8312 455.165 49.8635 446.067C49.333 445.586 48.9235 444.987 48.6682 444.318C48.4129 443.649 48.3189 442.929 48.394 442.217C49.4609 432.631 54.6362 383.136 51.7216 350.074C51.1529 343.898 52.0272 337.675 54.2756 331.895C56.5239 326.115 60.0848 320.937 64.6772 316.769C69.1892 312.611 74.6059 309.558 80.4998 307.851C86.3937 306.144 92.6035 305.831 98.6394 306.935C98.9453 306.99 99.2512 307.047 99.5574 307.106C119.221 310.912 132.883 329.11 131.337 349.437C129.081 379.097 127.059 419.216 130.235 441.905C130.366 442.833 130.204 443.779 129.771 444.611C129.338 445.442 128.656 446.117 127.82 446.542C120.595 450.192 102.494 458.242 83.5615 458.242Z" fill="#5EA51D"/>
<path id="Vector_21" d="M115.611 359.768C115.034 359.385 114.547 358.882 114.183 358.293C113.819 357.704 113.587 357.044 113.501 356.357L110.509 332.367C109.559 328.955 110.001 325.306 111.737 322.22C113.473 319.133 116.363 316.861 119.772 315.902C123.181 314.942 126.831 315.374 129.923 317.102C133.014 318.83 135.294 321.713 136.263 325.119L146.119 347.28C146.4 347.913 146.542 348.598 146.534 349.29C146.527 349.983 146.37 350.665 146.075 351.291C145.78 351.917 145.353 352.472 144.824 352.919C144.295 353.365 143.676 353.692 143.009 353.878L119.572 360.4C118.905 360.586 118.206 360.626 117.522 360.517C116.839 360.408 116.187 360.152 115.611 359.768Z" fill="#5EA51D"/>
<g id="head3">
<path id="Vector_22" d="M91.7971 298.475C105.362 298.475 116.358 287.479 116.358 273.914C116.358 260.349 105.362 249.353 91.7971 249.353C78.2324 249.353 67.2361 260.349 67.2361 273.914C67.2361 287.479 78.2324 298.475 91.7971 298.475Z" fill="#A0616A"/>
<path id="Vector_23" d="M83.2229 298.128C80.8981 298.171 78.5879 297.753 76.4257 296.898C75.4743 296.532 74.4866 296.23 73.537 295.864C65.1504 292.623 59.6258 283.692 59.4279 274.703C59.2301 265.714 63.885 256.99 70.7971 251.241C77.7092 245.491 86.6621 242.539 95.627 241.857C105.284 241.121 116.157 243.57 121.553 251.612C122.99 253.753 123.994 256.35 123.143 258.935C122.888 259.715 122.433 260.414 121.823 260.963C119.413 263.107 117.01 261.495 114.554 261.352C111.177 261.157 108.145 263.89 107.055 267.091C105.965 270.293 106.444 273.818 107.325 277.084C107.995 279.049 108.418 281.09 108.583 283.16C108.654 284.197 108.459 285.236 108.016 286.177C107.573 287.119 106.897 287.931 106.052 288.538C103.942 289.813 101.171 289.075 99.0599 287.802C96.9488 286.529 95.1246 284.758 92.8441 283.821C90.5637 282.884 87.5 283.092 86.1727 285.17C85.7508 285.926 85.4653 286.75 85.3292 287.605C84.1393 293.026 84.4128 292.707 83.2229 298.128Z" fill="#2F2E41"/>
</g>
<path id="Vector_24" d="M191.668 635H1.66772C1.40251 635 1.14815 634.895 0.960617 634.707C0.773081 634.52 0.667725 634.265 0.667725 634C0.667725 633.735 0.773081 633.48 0.960617 633.293C1.14815 633.105 1.40251 633 1.66772 633H191.668C191.933 633 192.187 633.105 192.375 633.293C192.562 633.48 192.668 633.735 192.668 634C192.668 634.265 192.562 634.52 192.375 634.707C192.187 634.895 191.933 635 191.668 635Z" fill="#CCCCCC"/>
</g>
</svg>
