<svg width="454" height="382" viewBox="0 0 454 382" fill="none" xmlns="http://www.w3.org/2000/svg">
<g id="Group 21">
<path id="Vector" d="M415.519 215.99C436.505 215.99 453.519 198.977 453.519 177.99C453.519 157.003 436.505 139.99 415.519 139.99C394.532 139.99 377.519 157.003 377.519 177.99C377.519 198.977 394.532 215.99 415.519 215.99Z" fill="#F2F2F2"/>
<path id="Vector_2" d="M415.519 187.99C421.041 187.99 425.519 183.513 425.519 177.99C425.519 172.467 421.041 167.99 415.519 167.99C409.996 167.99 405.519 172.467 405.519 177.99C405.519 183.513 409.996 187.99 415.519 187.99Z" fill="#E6E6E6"/>
<path id="Vector_3" d="M413.691 178.204C417.903 181.64 419.187 187.056 418.403 192.286C417.44 198.022 414.464 203.227 410.009 206.967C405 211.419 398.89 214.428 392.995 217.508C387.578 220.273 382.372 223.433 377.419 226.963C358.459 240.744 344.134 260.366 335.936 282.263C327.752 304.123 325.556 328.935 331.775 351.59C334.852 362.799 341.077 374.893 352.673 379.111C361.917 382.473 374.537 380.308 379.244 370.781C384.3 360.547 377.246 349.043 368.159 343.963C356.381 337.377 342.312 342.19 331.718 348.856C320.055 356.195 310.68 366.726 298.503 373.304C293.022 376.358 286.923 378.138 280.659 378.509C274.907 378.736 269.166 377.849 263.75 375.897C252.514 371.803 242.841 364.295 236.089 354.426C228.354 343.183 224.892 329.401 224.261 315.901C222.848 285.695 234.781 257.436 244.355 229.423C249.5 214.836 253.355 199.825 255.874 184.564C258.269 169.225 259.122 153.684 258.419 138.175C257.785 124.462 256.433 110.121 250.38 97.5965C245.058 86.5832 235.331 77.5693 223.034 75.2968C217.49 74.2089 211.746 74.8687 206.594 77.1852C204.84 77.9854 206.363 80.5718 208.108 79.7756C218.991 74.811 231.854 79.6415 239.892 87.6574C249.279 97.018 252.726 110.841 254.256 123.596C257.695 153.824 254.985 184.436 246.288 213.589C237.941 241.941 224.812 269.11 221.782 298.815C220.4 312.369 221.11 326.382 225.443 339.38C229.16 350.957 236.13 361.221 245.521 368.945C254.363 376.094 265.241 380.964 276.692 381.507C289.546 382.116 300.819 376.385 310.791 368.762C321.473 360.597 331.3 350.523 344.238 345.945C350.137 343.858 356.855 342.884 362.912 344.893C368.107 346.668 372.515 350.212 375.364 354.905C377.995 359.279 378.965 364.747 376.564 369.446C374.308 373.864 369.902 376.419 365.134 377.294C360.084 378.187 354.881 377.303 350.41 374.792C345.186 371.808 341.363 366.801 338.685 361.511C333.345 350.961 331.55 338.403 331.278 326.694C331.04 315.256 332.505 303.847 335.626 292.841C341.837 270.577 354.374 250.593 371.716 235.312C376.085 231.506 380.758 228.065 385.69 225.023C391.07 221.707 396.813 219.057 402.297 215.928C407.694 212.85 413.013 209.171 416.729 204.105C419.897 199.763 421.608 194.529 421.616 189.154C421.673 186.682 421.182 184.228 420.178 181.968C419.175 179.708 417.684 177.698 415.812 176.082C414.329 174.872 412.194 176.982 413.691 178.204Z" fill="#CCCCCC"/>
<path id="Vector_4" d="M58.9385 352.99C72.2257 361.578 87.5963 366.397 103.409 366.93C103.126 367.599 102.809 368.253 102.458 368.89C100.618 372.287 98.0169 375.214 94.8584 377.44C91.1187 380.072 86.728 381.626 82.1653 381.933C77.6027 382.241 73.0432 381.289 68.9844 379.182C64.9256 377.075 61.5233 373.894 59.1487 369.986C56.7741 366.078 55.5184 361.593 55.5186 357.02V352.99H58.9385Z" fill="#3F3D56"/>
<path id="Vector_5" d="M152.208 354.17V357.02C152.211 362.568 150.364 367.959 146.96 372.341C143.557 376.723 138.79 379.846 133.413 381.217C128.037 382.587 122.357 382.127 117.271 379.909C112.185 377.692 107.983 373.842 105.329 368.97C104.963 368.318 104.632 367.647 104.338 366.96C105.068 366.98 105.789 366.99 106.519 366.99C122.639 367.009 138.451 362.572 152.208 354.17Z" fill="#3F3D56"/>
<path id="Vector_6" d="M185.849 52.7901C185.099 52.6801 184.338 52.6101 183.579 52.5601C192.215 72.4629 192.813 94.9358 185.249 115.27C186.009 115.18 186.759 115.06 187.509 114.92C194.832 113.501 201.414 109.529 206.084 103.712C210.753 97.8942 213.207 90.6085 213.007 83.1516C212.808 75.6946 209.969 68.5503 204.996 62.9904C200.022 57.4306 193.237 53.816 185.849 52.7901Z" fill="#3F3D56"/>
<path id="Vector_7" d="M29.4585 52.5601C28.6988 52.6101 27.9385 52.68 27.1885 52.79C19.7997 53.8159 13.0147 57.4305 8.0414 62.9904C3.06805 68.5502 0.229058 75.6945 0.0298031 83.1515C-0.169452 90.6085 2.28399 97.8942 6.95333 103.712C11.6227 109.529 18.2049 113.501 25.5283 114.92C26.2783 115.06 27.0283 115.18 27.7886 115.27C20.224 94.9358 20.8225 72.4629 29.4585 52.5601Z" fill="#3F3D56"/>
<path id="Vector_8" d="M185.848 52.79C177.61 33.1099 162.35 17.1946 143.034 8.13624C123.718 -0.922153 101.724 -2.47692 81.3252 3.77399C60.9266 10.0249 43.5798 23.6352 32.6549 41.9606C21.73 60.2861 18.007 82.0183 22.2093 102.935C26.4115 123.852 38.2389 142.46 55.3937 155.145C72.5485 167.829 93.8058 173.683 115.036 171.571C136.266 169.459 155.953 159.53 170.272 143.714C184.591 127.899 192.52 107.325 192.518 85.99C192.514 74.5909 190.247 63.3061 185.848 52.79ZM185.248 115.27C177.933 134.934 163.523 151.147 144.853 160.72C126.183 170.292 104.607 172.529 84.3706 166.992C64.1342 161.454 46.7034 148.542 35.5091 130.798C24.3148 113.053 20.1678 91.7611 23.8843 71.1124C27.6007 50.4637 38.9115 31.954 55.5904 19.2263C72.2693 6.49854 93.1081 0.474776 114.005 2.34055C134.903 4.20633 154.345 13.8265 168.505 29.3076C182.666 44.7888 190.518 65.0095 190.518 85.99C190.515 95.9856 188.73 105.901 185.248 115.27Z" fill="#3F3D56"/>
<path id="robot-eye" d="M150.519 66.49H62.5186C57.8773 66.49 53.4261 68.3337 50.1442 71.6156C46.8623 74.8975 45.0186 79.3487 45.0186 83.99C45.0186 88.6313 46.8623 93.0825 50.1442 96.3643C53.4261 99.6462 57.8773 101.49 62.5186 101.49H150.519C155.16 101.49 159.611 99.6462 162.893 96.3643C166.175 93.0825 168.019 88.6313 168.019 83.99C168.019 79.3487 166.175 74.8975 162.893 71.6156C159.611 68.3337 155.16 66.49 150.519 66.49Z" fill="#5EA51D"/>
<path id="Vector_9" d="M106.518 188.99C83.0084 189.001 60.436 198.211 43.6293 214.65C26.8225 231.089 17.1159 253.452 16.5854 276.956C16.055 300.46 24.7429 323.238 40.7909 340.419C56.8389 357.6 78.9727 367.819 102.458 368.89C103.408 368.94 104.368 368.97 105.328 368.97C105.728 368.99 106.118 368.99 106.518 368.99C130.388 368.99 153.28 359.508 170.158 342.63C187.036 325.751 196.518 302.859 196.518 278.99C196.518 255.12 187.036 232.229 170.158 215.35C153.28 198.472 130.388 188.99 106.518 188.99ZM152.208 354.17C138.451 362.572 122.639 367.009 106.518 366.99C105.788 366.99 105.068 366.98 104.338 366.96C104.028 366.96 103.718 366.95 103.408 366.93C82.2766 366.195 62.1149 357.881 46.608 343.507C31.1011 329.132 21.2847 309.658 18.9529 288.642C16.6212 267.627 21.9297 246.474 33.9084 229.05C45.8871 211.625 63.7359 199.094 84.1926 193.745C104.649 188.396 126.348 190.587 145.322 199.917C164.297 209.248 179.28 225.095 187.533 244.562C195.787 264.029 196.759 285.817 190.273 305.942C183.787 326.067 170.276 343.186 152.208 354.17Z" fill="#3F3D56"/>
<path id="Vector_10" d="M169.686 256.823H130.352C127.611 256.823 124.983 255.735 123.045 253.797C121.107 251.859 120.019 249.231 120.019 246.49C120.019 243.749 121.107 241.121 123.045 239.183C124.983 237.245 127.611 236.156 130.352 236.156H169.686C172.426 236.156 175.055 237.245 176.992 239.183C178.93 241.121 180.019 243.749 180.019 246.49C180.019 249.231 178.93 251.859 176.992 253.797C175.055 255.735 172.426 256.823 169.686 256.823Z" fill="#3F3D56"/>
<path id="robot-circle1" d="M132.974 251.734C135.87 251.734 138.218 249.386 138.218 246.49C138.218 243.594 135.87 241.246 132.974 241.246C130.078 241.246 127.729 243.594 127.729 246.49C127.729 249.386 130.078 251.734 132.974 251.734Z" fill="#F2F2F2"/>
<path id="robot-circle2" d="M150.018 251.734C152.915 251.734 155.263 249.386 155.263 246.49C155.263 243.594 152.915 241.246 150.018 241.246C147.122 241.246 144.774 243.594 144.774 246.49C144.774 249.386 147.122 251.734 150.018 251.734Z" fill="#F2F2F2"/>
<path id="robot-circle3" d="M167.063 251.734C169.959 251.734 172.307 249.386 172.307 246.49C172.307 243.594 169.959 241.246 167.063 241.246C164.166 241.246 161.818 243.594 161.818 246.49C161.818 249.386 164.166 251.734 167.063 251.734Z" fill="#5EA51D"/>
</g>
</svg>
