<svg width="384" height="607" viewBox="0 0 384 607" fill="none" xmlns="http://www.w3.org/2000/svg">
<g id="Group 20">
<path id="Vector" d="M332.63 606.19H139.51C111.42 606.19 88.5701 583.34 88.5701 555.25V50.94C88.5701 22.85 111.42 0 139.51 0H332.63C360.72 0 383.57 22.85 383.57 50.94V555.25C383.57 583.34 360.72 606.19 332.63 606.19Z" fill="#DADBDC"/>
<path id="Vector_2" d="M332.77 592.4H139.37C118.58 592.4 101.66 575.48 101.66 554.69V50.51C101.66 29.72 118.58 12.8 139.37 12.8H332.77C353.56 12.8 370.48 29.72 370.48 50.51V554.69C370.48 575.48 353.56 592.4 332.77 592.4Z" fill="white"/>
<path id="Vector_3" d="M263.42 46.36H208.73C201.51 46.36 195.64 40.49 195.64 33.27C195.64 26.05 201.51 20.18 208.73 20.18H263.42C270.64 20.18 276.51 26.05 276.51 33.27C276.51 40.49 270.64 46.36 263.42 46.36Z" fill="#DADBDC"/>
<path id="phone-line1" d="M319.23 200.32H159.2C156.03 200.32 153.45 197.04 153.45 193.02C153.45 189 156.03 185.72 159.2 185.72H319.23C322.4 185.72 324.98 189 324.98 193.02C324.98 197.04 322.4 200.32 319.23 200.32Z" fill="#DADBDC"/>
<path id="phone-line2" d="M319.23 232.67H159.2C156.03 232.67 153.45 229.39 153.45 225.37C153.45 221.35 156.03 218.07 159.2 218.07H319.23C322.4 218.07 324.98 221.35 324.98 225.37C324.98 229.39 322.4 232.67 319.23 232.67Z" fill="#DADBDC"/>
<path id="phone-line3" d="M273.34 265.02H159.2C156.03 265.02 153.45 261.74 153.45 257.72C153.45 253.7 156.03 250.42 159.2 250.42H273.34C276.51 250.42 279.09 253.7 279.09 257.72C279.09 261.74 276.51 265.02 273.34 265.02Z" fill="#DADBDC"/>
<g id="tick-circle">
<path id="Vector_4" d="M236.07 455.22C273.797 455.22 304.38 424.637 304.38 386.91C304.38 349.183 273.797 318.6 236.07 318.6C198.343 318.6 167.76 349.183 167.76 386.91C167.76 424.637 198.343 455.22 236.07 455.22Z" fill="#5EA51D"/>
<path id="Vector_5" d="M217.9 388.33C221.43 395.24 224.96 402.16 228.49 409.07C229.5 411.06 232.47 410.43 233.06 408.47C237.69 393.03 246.29 378.96 257.88 367.77C260.2 365.53 256.66 362 254.34 364.23C242.14 376.01 233.11 390.9 228.23 407.14L232.8 406.54C229.27 399.63 225.74 392.71 222.21 385.8C220.75 382.93 216.43 385.46 217.89 388.32H217.9V388.33Z" fill="white"/>
</g>
<path id="Vector_6" d="M51.9201 304.28L35.3601 309.93L35.1001 286.02L50.1701 285.85L51.9201 304.28Z" fill="#F3A3A6"/>
<g id="head2">
<path id="Vector_7" d="M37.04 292.62C46.1858 292.62 53.6 285.206 53.6 276.06C53.6 266.914 46.1858 259.5 37.04 259.5C27.8941 259.5 20.48 266.914 20.48 276.06C20.48 285.206 27.8941 292.62 37.04 292.62Z" fill="#F3A3A6"/>
<path id="Vector_8" d="M41.5701 274.37C38.8001 274.32 36.9501 271.54 35.8401 268.99C34.7301 266.45 33.5901 263.52 31.0201 262.49C28.9101 261.65 25.2701 267.52 23.5901 265.99C21.8401 264.39 23.4401 256.05 25.2601 254.54C27.0801 253.03 29.5901 252.71 31.9501 252.57C37.7201 252.24 43.5201 252.64 49.1901 253.76C52.6901 254.45 56.3101 255.51 58.8601 258.01C62.0901 261.18 62.9601 266.01 63.2401 270.53C63.5301 275.15 63.3101 280 61.1101 284.08C58.9001 288.15 54.2301 291.19 49.7001 290.21C49.2201 287.76 49.6501 285.24 49.8001 282.74C49.9501 280.25 49.7301 277.56 48.1901 275.59C46.6501 273.62 43.3901 272.87 41.6401 274.65" fill="#2F2E43"/>
<path id="Vector_9" d="M62 279.88C63.64 278.65 65.61 277.61 67.65 277.84C69.86 278.08 71.74 279.88 72.33 282.02C72.92 284.16 72.31 286.53 70.97 288.3C69.63 290.07 67.62 291.25 65.48 291.85C64.24 292.2 62.89 292.35 61.7 291.85C59.95 291.12 58.99 288.91 59.65 287.13" fill="#2F2E43"/>
</g>
<path id="uuid-aacd27ab-43c3-4d3d-aa57-4e8c94c3c81e-528" d="M0.380011 436.33C-0.659988 441.78 1.41001 446.73 5.02001 447.38C8.62001 448.03 12.39 444.13 13.43 438.68C13.88 436.51 13.78 434.26 13.14 432.13L25.88 346.72L8.72001 343.69L3.07001 430.32C1.69001 432.09 0.760011 434.15 0.380011 436.34V436.33Z" fill="#F3A3A6"/>
<path id="Vector_10" d="M35.06 298.96L23.37 299.09C15.12 300.43 12.92 304.87 11.14 313.03C8.40996 325.48 4.92997 342.07 5.65997 342.3C6.82997 342.68 26.83 351.82 36.95 349.56L35.06 298.96Z" fill="#5EA51D"/>
<path id="Vector_11" d="M49.4155 570.411L33.8564 570.585L34.103 592.653L49.662 592.48L49.4155 570.411Z" fill="#F3A3A6"/>
<path id="Vector_12" d="M19.06 606.19C17.42 606.21 15.97 606.19 14.87 606.1C10.73 605.77 6.75996 602.76 4.74996 601C3.84996 600.21 3.54996 598.93 3.99996 597.83C4.31996 597.04 4.97996 596.44 5.79996 596.19L16.69 592.95L34.24 580.82L34.44 581.17C34.52 581.3 36.29 584.41 36.89 586.52C37.12 587.32 37.07 587.99 36.74 588.51C36.51 588.87 36.19 589.08 35.93 589.21C36.25 589.54 37.26 590.21 40.36 590.67C44.87 591.34 45.78 586.65 45.81 586.45L45.84 586.29L45.97 586.2C48.1 584.79 49.41 584.15 49.87 584.28C50.16 584.36 50.63 584.5 52.05 597.22C52.18 597.62 53.11 600.54 52.53 603.35C51.9 606.41 38.57 605.5 35.91 605.29C35.83 605.3 25.87 606.12 19.04 606.19H19.06Z" fill="#2F2E43"/>
<path id="Vector_13" d="M93.5251 552.542L80.415 560.923L92.3025 579.518L105.412 571.137L93.5251 552.542Z" fill="#F3A3A6"/>
<path id="Vector_14" d="M76.5101 602.52C74.6801 602.54 73.0001 602.34 71.8001 602.14C70.6201 601.94 69.6901 601.02 69.4901 599.84C69.3401 598.99 69.5901 598.14 70.1501 597.5L77.6701 588.99L86.1401 569.41L86.5001 569.6C86.6301 569.67 89.7801 571.37 91.4101 572.84C92.0301 573.4 92.3401 573.99 92.3401 574.61C92.3401 575.04 92.1801 575.39 92.0201 575.63C92.4701 575.74 93.6801 575.77 96.5501 574.52C100.73 572.7 99.0201 568.24 98.9401 568.06L98.8801 567.91L98.9501 567.77C100.01 565.45 100.79 564.21 101.24 564.07C101.53 563.99 102 563.85 109.94 573.89C110.26 574.16 112.6 576.14 113.59 578.83C114.67 581.76 102.89 588.04 100.51 589.27C100.44 589.33 88.1301 598.48 83.0701 601.1C81.0601 602.14 78.6701 602.48 76.4901 602.5L76.5101 602.52Z" fill="#2F2E43"/>
<path id="Vector_15" d="M58.79 385.68L15.23 386.16L11.73 426.72L30.69 576.26L52.93 576.01L43.08 489.63L80.02 567.31L99.63 553.25L70.65 480.67C70.65 480.67 80.01 417.06 71.93 401.33C63.85 385.6 58.8 385.66 58.8 385.66V385.68H58.79Z" fill="#2F2E43"/>
<path id="Vector_16" d="M80.48 387.91L11.3 388.68L31.06 299.01L61.21 298.67L80.48 387.91Z" fill="#5EA51D"/>
<path id="uuid-36382701-bf34-46f2-bbf2-9fa794ab079f-529" d="M87.24 435.37C88.4 440.8 86.44 445.79 82.85 446.52C79.26 447.25 75.41 443.44 74.25 438.01C73.75 435.85 73.8 433.6 74.39 431.45L59.75 346.34L76.84 342.93L84.41 429.42C85.83 431.16 86.8 433.2 87.24 435.38V435.37Z" fill="#F3A3A6"/>
<path id="Vector_17" d="M49.52 298.8L61.21 298.67C69.49 299.83 71.78 304.22 73.75 312.34C76.75 324.73 80.6 341.23 79.88 341.48C78.71 341.88 58.93 351.46 48.76 349.43L49.53 298.8H49.52Z" fill="#5EA51D"/>
</g>
</svg>
