<svg width="591" height="517" viewBox="0 0 591 517" fill="none" xmlns="http://www.w3.org/2000/svg">
<g id="Group 19">
<g id="leaf1">
<path id="Vector" d="M425.634 510.031C416.641 502.432 411.179 490.428 412.611 478.743C414.044 467.057 422.916 456.314 434.424 453.833C445.933 451.351 459.052 458.221 462.548 469.463C464.471 447.788 466.688 425.206 478.212 406.748C488.646 390.035 506.718 378.076 526.305 375.936C545.891 373.797 566.513 381.877 578.728 397.337C590.944 412.796 593.935 435.271 585.379 453.019C579.077 466.094 567.466 475.824 555.3 483.74C515.988 509.105 468.839 519.42 422.528 512.787" fill="#F2F2F2"/>
<path id="Vector_2" d="M559.36 382.325C543.199 395.489 528.373 410.211 515.096 426.279C494.318 451.34 477.504 479.438 465.24 509.593C464.342 511.793 467.915 512.751 468.803 510.576C488.868 461.566 520.901 418.37 561.972 384.938C563.817 383.436 561.189 380.836 559.36 382.325Z" fill="white"/>
</g>
<path id="rect1" d="M99.8376 515.232H48.8376C47.1143 515.23 45.4622 514.544 44.2436 513.326C43.0251 512.107 42.3396 510.455 42.3376 508.732V402.732C42.3396 401.008 43.0251 399.356 44.2436 398.138C45.4622 396.919 47.1143 396.234 48.8376 396.232H99.8376C101.561 396.234 103.213 396.919 104.432 398.138C105.65 399.356 106.336 401.008 106.338 402.732V508.732C106.336 510.455 105.65 512.107 104.432 513.326C103.213 514.544 101.561 515.23 99.8376 515.232Z" fill="#5EA51D"/>
<path id="rect2" d="M220.838 516.232H169.838C167.849 516.229 165.943 515.439 164.537 514.033C163.131 512.626 162.34 510.72 162.338 508.732V302.732C162.34 300.743 163.131 298.837 164.537 297.431C165.943 296.025 167.849 295.234 169.838 295.232H220.838C222.826 295.234 224.733 296.025 226.139 297.431C227.545 298.837 228.336 300.743 228.338 302.732V508.732C228.336 510.72 227.545 512.626 226.139 514.033C224.733 515.439 222.826 516.229 220.838 516.232ZM169.838 297.232C168.38 297.233 166.982 297.813 165.951 298.844C164.92 299.875 164.34 301.273 164.338 302.732V508.732C164.34 510.19 164.92 511.588 165.951 512.619C166.982 513.65 168.38 514.23 169.838 514.232H220.838C222.296 514.23 223.694 513.65 224.725 512.619C225.756 511.588 226.336 510.19 226.338 508.732V302.732C226.336 301.273 225.756 299.875 224.725 298.844C223.694 297.813 222.296 297.233 220.838 297.232H169.838Z" fill="#3F3D56"/>
<path id="rect3" d="M341.838 516.232H290.838C288.849 516.229 286.943 515.439 285.537 514.033C284.131 512.626 283.34 510.72 283.338 508.732V171.732C283.34 169.743 284.131 167.837 285.537 166.431C286.943 165.025 288.849 164.234 290.838 164.232H341.838C343.826 164.234 345.733 165.025 347.139 166.431C348.545 167.837 349.335 169.743 349.338 171.732V508.732C349.335 510.72 348.545 512.626 347.139 514.033C345.733 515.439 343.826 516.229 341.838 516.232ZM290.838 166.232C289.379 166.233 287.981 166.813 286.95 167.844C285.919 168.875 285.339 170.273 285.338 171.732V508.732C285.339 510.19 285.919 511.588 286.95 512.619C287.981 513.65 289.379 514.23 290.838 514.232H341.838C343.296 514.23 344.694 513.65 345.725 512.619C346.756 511.588 347.336 510.19 347.338 508.732V171.732C347.336 170.273 346.756 168.875 345.725 167.844C344.694 166.813 343.296 166.233 341.838 166.232H290.838Z" fill="#3F3D56"/>
<path id="rect4" d="M463.967 515.732H412.967C411.244 515.73 409.592 515.044 408.373 513.826C407.154 512.607 406.469 510.955 406.467 509.232V34.2316C406.469 32.5083 407.154 30.8562 408.373 29.6376C409.592 28.4191 411.244 27.7336 412.967 27.7316H463.967C465.69 27.7336 467.342 28.4191 468.561 29.6376C469.78 30.8562 470.465 32.5083 470.467 34.2316V509.232C470.465 510.955 469.78 512.607 468.561 513.826C467.342 515.044 465.69 515.73 463.967 515.732Z" fill="#5EA51D"/>
<path id="Vector_3" d="M62.201 389.377L74.461 389.376L80.293 342.088L62.199 342.089L62.201 389.377Z" fill="#A0616A"/>
<path id="Vector_4" d="M98.1055 400.759L59.5747 400.761L59.5741 385.874L83.2179 385.873C87.1662 385.873 90.9528 387.441 93.7447 390.233C96.5367 393.025 98.1053 396.811 98.1055 400.759Z" fill="#2F2E41"/>
<path id="Vector_5" d="M99.021 204.941C99.021 204.941 105.021 262.941 90.021 302.941L79.021 378.941H60.021L62.021 288.941L55.021 208.941C55.021 208.941 69.021 172.941 99.021 204.941Z" fill="#2F2E41"/>
<g id="leg1">
<path id="Vector_6" d="M9.81592 351.113L19.7169 358.342L52.3119 323.589L37.6979 312.92L9.81592 351.113Z" fill="#A0616A"/>
<path id="Vector_7" d="M32.101 381.478L0.981099 358.758L9.75901 346.735L28.8554 360.676C32.0442 363.004 34.1777 366.504 34.7863 370.405C35.395 374.306 34.4291 378.289 32.101 381.478Z" fill="#2F2E41"/>
<path id="Vector_8" d="M34.021 208.94L54.021 277.94L15.021 339.94L34.521 356.44L79.021 286.94L66.021 201.94L34.021 208.94Z" fill="#2F2E41"/>
</g>
<path id="Vector_9" d="M64.5209 63.4405C64.5209 63.4405 79.5209 53.4405 96.5209 75.4405L101.021 213.94C101.021 213.94 88.0209 195.94 61.0209 212.94C34.0209 229.94 28.0209 210.94 28.0209 210.94C28.0209 210.94 9.02089 67.9405 64.5209 63.4405Z" fill="#CCCCCC"/>
<g id="arm1">
<path id="Vector_10" d="M146.779 222.358C146.965 220.9 146.828 219.419 146.378 218.019C145.929 216.619 145.178 215.335 144.179 214.257C143.179 213.179 141.956 212.333 140.594 211.779C139.232 211.224 137.766 210.976 136.298 211.05L118.521 178.44L114.521 192.44L126.7 222.326C126.988 224.785 128.167 227.052 130.015 228.699C131.863 230.345 134.25 231.257 136.725 231.261C139.201 231.265 141.591 230.361 143.444 228.72C145.297 227.079 146.484 224.816 146.779 222.358Z" fill="#A0616A"/>
<path id="Vector_11" d="M95.3109 75.0913C99.625 75.3245 103.7 77.1448 106.753 80.2019C109.806 83.2591 111.621 87.3372 111.848 91.6516L115.021 151.94L136.021 208.941L124.021 218.941L85.0208 150.94L77.036 95.0474C76.6701 92.4856 76.8766 89.8745 77.6408 87.402C78.405 84.9296 79.7079 82.6574 81.4556 80.7489C83.2033 78.8405 85.3524 77.3432 87.7482 76.3649C90.144 75.3866 92.7268 74.9516 95.3109 75.0913Z" fill="#CCCCCC"/>
</g>
<g id="head1">
<path id="Vector_12" d="M85.0249 54.2141C98.5896 54.2141 109.586 43.2178 109.586 29.6531C109.586 16.0884 98.5896 5.09207 85.0249 5.09207C71.4602 5.09207 60.4639 16.0884 60.4639 29.6531C60.4639 43.2178 71.4602 54.2141 85.0249 54.2141Z" fill="#A0616A"/>
<path id="Vector_13" d="M66.9777 48.0764C70.9929 52.3535 78.4498 50.0574 78.973 44.2143C79.0141 43.7606 79.0111 43.3041 78.9642 42.851C78.694 40.2627 77.1987 37.9129 77.5569 35.1801C77.638 34.4999 77.8914 33.8517 78.2931 33.2969C81.4928 29.0123 89.0037 35.2133 92.0234 31.3346C93.8751 28.9563 91.6985 25.2117 93.1194 22.5534C94.9948 19.045 100.55 20.7758 104.033 18.8544C107.909 16.7166 107.677 10.7701 105.126 7.15318C102.014 2.74218 96.559 0.388425 91.1717 0.0491752C85.7844 -0.290075 80.4343 1.16626 75.4047 3.12632C69.6902 5.35332 64.0234 8.43113 60.5067 13.4559C56.2301 19.5667 55.8186 27.7819 57.9574 34.9273C59.2585 39.2739 63.6988 44.5836 66.9777 48.0764Z" fill="#2F2E41"/>
</g>
</g>
</svg>
