<svg width="118" height="136" viewBox="0 0 118 136" fill="none" xmlns="http://www.w3.org/2000/svg">
<path fill-rule="evenodd" clip-rule="evenodd" d="M16.9288 1.35118e-05C14.0527 -0.00283173 11.2234 0.727042 8.70763 2.12077C6.12771 3.43566 3.95428 5.42777 2.42032 7.88359C0.886356 10.3394 0.0496893 13.1663 0 16.0614V119.93C0.0496893 122.825 0.886356 125.652 2.42032 128.108C3.95428 130.563 6.12771 132.556 8.70763 133.87C11.269 135.293 14.1557 136.027 17.0856 135.999C20.0154 135.972 22.888 135.185 25.4224 133.715L109.385 81.7854C111.976 80.4797 114.154 78.4801 115.675 76.0095C117.196 73.5389 118.001 70.6944 118 67.7932C117.999 64.8919 117.192 62.048 115.669 59.5785C114.146 57.1089 111.968 55.1108 109.376 53.807L25.4127 2.2667C22.8333 0.778118 19.9069 -0.00374847 16.9288 1.35118e-05Z" fill="white"/>
</svg>
